<svg xmlns="http://www.w3.org/2000/svg" width="153.281" height="11.438" viewBox="0 0 153.281 11.438">
  <metadata><?xpacket begin="﻿" id="W5M0MpCehiHzreSzNTczkc9d"?>
<x:xmpmeta xmlns:x="adobe:ns:meta/" x:xmptk="Adobe XMP Core 5.6-c138 79.159824, 2016/09/14-01:09:01        ">
   <rdf:RDF xmlns:rdf="http://www.w3.org/1999/02/22-rdf-syntax-ns#">
      <rdf:Description rdf:about=""/>
   </rdf:RDF>
</x:xmpmeta>
                                                                                                    
                                                                                                    
                                                                                                    
                                                                                                    
                                                                                                    
                                                                                                    
                                                                                                    
                                                                                                    
                                                                                                    
                                                                                                    
                                                                                                    
                                                                                                    
                                                                                                    
                                                                                                    
                                                                                                    
                                                                                                    
                                                                                                    
                                                                                                    
                                                                                                    
                                                                                                    
                           
<?xpacket end="w"?></metadata>
<defs>
    <style>
      .cls-1 {
        fill-rule: evenodd;
      }
    </style>
  </defs>
  <path id="MEGAPOLIS_MEDIA" data-name="MEGAPOLIS MEDIA" class="cls-1" d="M27.36,18.943a0.786,0.786,0,0,0-.832.672L24.96,25.583c-0.144.528-.24,1.008-0.336,1.52h-0.24c-0.112-.512-0.192-0.992-0.336-1.5L22.48,19.615a0.771,0.771,0,0,0-.816-0.672h-2.08a0.709,0.709,0,0,0-.784.784L18.385,29.983h1.952l0.352-9.424H20.96L22.9,27.9a0.8,0.8,0,0,0,.848.672H25.28a0.8,0.8,0,0,0,.832-0.672l1.9-7.344h0.3l0.368,9.424h1.968L30.208,19.727a0.709,0.709,0,0,0-.784-0.784H27.36Zm13.727,9.424h-4.32c-0.576,0-.8-0.24-0.8-0.928V24.975h4.528V23.439H35.967V21.5c0-.688.224-0.928,0.8-0.928h4.32l0.1-1.536c-1.456-.128-3.248-0.128-4.864-0.128a2.1,2.1,0,0,0-2.368,2.1v6.912a2.09,2.09,0,0,0,2.368,2.1c1.616,0,3.408,0,4.864-.128Zm11.087-4.752H50.222V27.7a4.272,4.272,0,0,1-2.32.768c-1.488,0-1.984-.976-1.984-3.936,0-3.6.736-4.032,2.832-4.032,0.752,0,1.872.032,2.912,0.1l0.16-1.488a11.945,11.945,0,0,0-3.168-.368c-3.568,0-4.832,1.264-4.832,5.68,0,3.984,1.008,5.776,3.456,5.776a4.714,4.714,0,0,0,3.232-1.3l0.176,1.088h1.488V23.615Zm9.231,3.248,0.912,3.12h2.048L61.054,19.471a0.721,0.721,0,0,0-.72-0.528H58.382a0.721,0.721,0,0,0-.72.528L54.35,29.983H56.4l0.912-3.12h4.1Zm-0.48-1.648H57.79l1.1-3.808,0.256-.944h0.432c0.048,0.3.16,0.64,0.24,0.944Zm9.9-6.416a35.062,35.062,0,0,0-4,.144v11.04h2V25.775a19.514,19.514,0,0,0,2.256.128c2.608,0,3.536-.752,3.536-3.552C74.621,19.567,73.693,18.8,70.829,18.8Zm-2,5.472V20.463l1.952-.016c1.392,0,1.824.384,1.824,1.9s-0.432,1.9-1.824,1.92H68.829Zm12.927-5.536c-3.36,0-4.544,1.344-4.544,5.728s1.184,5.728,4.544,5.728c3.376,0,4.56-1.344,4.56-5.728S85.132,18.735,81.756,18.735Zm0,1.712c1.872,0,2.448.944,2.448,4.016s-0.576,4.016-2.448,4.016c-1.856,0-2.432-.944-2.432-4.016S79.9,20.447,81.756,20.447Zm9.759-1.5h-2v8.784c0,1.328.64,2.288,2.48,2.288,1.488,0,2.992-.016,4.384-0.144L96.3,28.319h-3.84a0.773,0.773,0,0,1-.944-0.912V18.943Zm9.52,11.04V18.943h-2v11.04h2Zm6.943-11.232c-2.64,0-3.792.432-3.792,2.96a2.929,2.929,0,0,0,2.224,3.2l2.224,0.7a1.266,1.266,0,0,1,1.168,1.456c0,1.136-.4,1.344-1.84,1.344-0.768,0-1.408-.016-3.5-0.064l-0.128,1.472a18.276,18.276,0,0,0,3.584.352c2.832,0,3.92-.576,3.92-3.088a2.921,2.921,0,0,0-2.272-3.216l-2.128-.656a1.311,1.311,0,0,1-1.232-1.472c0-1.184.5-1.264,1.84-1.264,1.088,0,2.368.032,3.28,0.064l0.128-1.424A14.107,14.107,0,0,0,107.978,18.751Zm20.382,0.192a0.786,0.786,0,0,0-.832.672l-1.568,5.968c-0.143.528-.239,1.008-0.335,1.52h-0.24c-0.112-.512-0.192-0.992-0.336-1.5l-1.568-5.984a0.771,0.771,0,0,0-.816-0.672h-2.08a0.709,0.709,0,0,0-.784.784l-0.416,10.256h1.952l0.352-9.424h0.272L123.9,27.9a0.8,0.8,0,0,0,.848.672h1.535a0.8,0.8,0,0,0,.832-0.672l1.9-7.344h0.3l0.368,9.424h1.968l-0.448-10.256a0.709,0.709,0,0,0-.784-0.784H128.36Zm13.727,9.424h-4.319c-0.576,0-.8-0.24-0.8-0.928V24.975H141.5V23.439h-4.527V21.5c0-.688.224-0.928,0.8-0.928h4.319l0.1-1.536c-1.455-.128-3.247-0.128-4.863-0.128a2.1,2.1,0,0,0-2.368,2.1v6.912a2.09,2.09,0,0,0,2.368,2.1c1.616,0,3.408,0,4.863-.128Zm7.328-9.568c-1.616,0-2.912.064-4.128,0.144v11.04c1.216,0.08,2.528.144,4.128,0.144,3.312,0,4.512-1.344,4.512-5.664S152.727,18.8,149.415,18.8Zm0,9.648c-0.8,0-1.5-.016-2.128-0.032V20.479c0.64,0,1.312-.016,2.128-0.016,1.824,0,2.4.96,2.4,4S151.239,28.447,149.415,28.447Zm9.759,1.536V18.943h-2v11.04h2Zm9.519-3.12,0.912,3.12h2.048l-3.312-10.512a0.721,0.721,0,0,0-.72-0.528H165.67a0.721,0.721,0,0,0-.72.528l-3.312,10.512h2.048l0.912-3.12h4.095Zm-0.48-1.648h-3.135l1.1-3.808,0.256-.944h0.432c0.048,0.3.16,0.64,0.24,0.944Z" transform="translate(-18.375 -18.75)"/>
</svg>
