<svg id="Logo_MM" xmlns="http://www.w3.org/2000/svg" width="1592.407" height="498.22" viewBox="0 0 1592.407 498.22">
  <metadata><?xpacket begin="﻿" id="W5M0MpCehiHzreSzNTczkc9d"?>
<x:xmpmeta xmlns:x="adobe:ns:meta/" x:xmptk="Adobe XMP Core 5.6-c138 79.159824, 2016/09/14-01:09:01        ">
   <rdf:RDF xmlns:rdf="http://www.w3.org/1999/02/22-rdf-syntax-ns#">
      <rdf:Description rdf:about=""/>
   </rdf:RDF>
</x:xmpmeta>
                                                                                                    
                                                                                                    
                                                                                                    
                                                                                                    
                                                                                                    
                                                                                                    
                                                                                                    
                                                                                                    
                                                                                                    
                                                                                                    
                                                                                                    
                                                                                                    
                                                                                                    
                                                                                                    
                                                                                                    
                                                                                                    
                                                                                                    
                                                                                                    
                                                                                                    
                                                                                                    
                           
<?xpacket end="w"?></metadata>
<defs>
    <style>
      .cls-1 {
        fill: #302f2e;
      }

      .cls-1, .cls-2, .cls-3 {
        fill-rule: evenodd;
      }

      .cls-3 {
        fill: #ffd200;
      }
    </style>
  </defs>
  <path id="detail" class="cls-1" d="M1475.45,1435.05h99.04v218.66h-99.04V1435.05Z" transform="translate(-975.563 -1184.44)"/>
  <path id="text" class="cls-2" d="M1766.07,1542.76q8.655,0,13.23-4.02,4.56-4.005,4.56-11.38,0-7.3-4.75-11.47-4.74-4.185-12.93-4.18h-17.9v52.38h4.44v-21.33h13.35Zm-13.35-27.31h13.75q6.195,0.075,9.58,3.3a11.418,11.418,0,0,1,3.37,8.66c0,3.66-1.13,6.5-3.39,8.54s-5.55,3.06-9.85,3.06h-13.46v-23.56Zm73.84,42.49-2.7-2.06a13.578,13.578,0,0,1-4.82,4.03,14.118,14.118,0,0,1-6.12,1.26,12.145,12.145,0,0,1-9.58-4.4,16.272,16.272,0,0,1-3.8-11.03v-0.83h27.85v-2.41q0-8.37-4.17-13.22-4.155-4.83-11.27-4.83a14.961,14.961,0,0,0-8.44,2.57,17.235,17.235,0,0,0-6.08,7.07,22.728,22.728,0,0,0-2.19,10.1v1.55a21.2,21.2,0,0,0,2.24,9.8,16.659,16.659,0,0,0,6.26,6.82,16.982,16.982,0,0,0,9,2.45q9.06,0,13.82-6.87h0Zm-6.67-26.3a14.269,14.269,0,0,1,3.21,9.14v0.46h-23.42a16.365,16.365,0,0,1,4.06-9.56,10.779,10.779,0,0,1,8.21-3.56A9.966,9.966,0,0,1,1819.89,1531.64Zm47.61,32.45h5.7l-17.79-20.04,16.02-18.88h-5.45l-14.32,17.26h-5.92v-17.26h-4.37v38.92h4.37v-17.85h5.99Zm22.78-38.92-0.79,18.84q-0.51,9.075-2.13,12.59a5.644,5.644,0,0,1-5.34,3.6l-1.34.07v3.82h1.66a9.246,9.246,0,0,0,6.25-2.02,12.421,12.421,0,0,0,3.53-6.27,60.326,60.326,0,0,0,1.63-12.34l0.68-14.55h15.99v35.18h4.33v-38.92h-24.47Zm70.63,38.92v-0.44c-0.79-1.87-1.19-4.68-1.19-8.45v-18.42q-0.1-5.82-3.88-9.08t-10.3-3.25a16.659,16.659,0,0,0-10.64,3.4q-4.335,3.39-4.33,8.04l4.33,0.03a6.821,6.821,0,0,1,2.96-5.54,11.818,11.818,0,0,1,7.47-2.3q4.935,0,7.52,2.39a8.519,8.519,0,0,1,2.58,6.57v4.42h-7.83q-8.475,0-13.23,3.31a10.409,10.409,0,0,0-4.74,8.99,10.2,10.2,0,0,0,3.48,7.92,13.142,13.142,0,0,0,9.11,3.13,17.732,17.732,0,0,0,7.45-1.61,14.872,14.872,0,0,0,5.79-4.55,20.519,20.519,0,0,0,.83,5.44h4.62Zm-24.52-5.26a6.929,6.929,0,0,1-2.43-5.43,7.051,7.051,0,0,1,3.64-6.27q3.645-2.3,10.11-2.36h7.72v8.56a12.323,12.323,0,0,1-4.96,5.58,14.568,14.568,0,0,1-7.74,2.08A9.216,9.216,0,0,1,1936.39,1558.83Zm46.3-33.66h-5.67v38.92h4.3v-32.67l15.3,32.67h3.06l15.01-31.95v31.95h4.33v-38.92h-5.34l-15.51,33.09Zm83.19,0h-4.33v17.44h-21.04v-17.44h-4.33v38.92h4.33v-17.85h21.04v17.85h4.33v-38.92Zm14.48,19.74q0,9,4.85,14.45a16.121,16.121,0,0,0,12.62,5.45,16.883,16.883,0,0,0,9.05-2.45,16.194,16.194,0,0,0,6.15-6.96,22.99,22.99,0,0,0,2.19-10.16v-0.9q0-9-4.84-14.44a16.052,16.052,0,0,0-12.63-5.45,16.411,16.411,0,0,0-15.21,9.49,22.936,22.936,0,0,0-2.18,10.11v0.86Zm4.33-.46q0-7.305,3.65-11.82a11.53,11.53,0,0,1,9.41-4.51,11.888,11.888,0,0,1,6.86,2.03,13.2,13.2,0,0,1,4.65,5.74,19.677,19.677,0,0,1,1.66,8.16v0.83q0,7.335-3.62,11.81a12.291,12.291,0,0,1-18.98,0q-3.63-4.47-3.63-11.45v-0.79Zm73.7,13.49-2.71-2.06a13.551,13.551,0,0,1-4.81,4.03,14.118,14.118,0,0,1-6.12,1.26,12.145,12.145,0,0,1-9.58-4.4,16.278,16.278,0,0,1-3.81-11.03v-0.83h27.86v-2.41q0-8.37-4.17-13.22a14.13,14.13,0,0,0-11.27-4.83,15.016,15.016,0,0,0-8.45,2.57,17.309,17.309,0,0,0-6.08,7.07,22.861,22.861,0,0,0-2.18,10.1v1.55a21.077,21.077,0,0,0,2.24,9.8,16.592,16.592,0,0,0,6.26,6.82,16.982,16.982,0,0,0,9,2.45q9.06,0,13.82-6.87h0Zm-6.68-26.3a14.219,14.219,0,0,1,3.22,9.14v0.46h-23.42a16.365,16.365,0,0,1,4.06-9.56,10.779,10.779,0,0,1,8.21-3.56A9.946,9.946,0,0,1,2151.71,1531.64Zm73.79,32.45v-0.44c-0.79-1.87-1.19-4.68-1.19-8.45v-18.42a11.672,11.672,0,0,0-3.88-9.08q-3.765-3.255-10.3-3.25a16.659,16.659,0,0,0-10.64,3.4q-4.335,3.39-4.33,8.04l4.33,0.03a6.837,6.837,0,0,1,2.95-5.54,11.857,11.857,0,0,1,7.47-2.3q4.95,0,7.53,2.39a8.519,8.519,0,0,1,2.58,6.57v4.42h-7.83q-8.49,0-13.23,3.31a10.409,10.409,0,0,0-4.74,8.99,10.2,10.2,0,0,0,3.48,7.92,13.142,13.142,0,0,0,9.11,3.13,17.732,17.732,0,0,0,7.45-1.61,14.872,14.872,0,0,0,5.79-4.55,20.519,20.519,0,0,0,.83,5.44h4.62Zm-24.52-5.26a6.929,6.929,0,0,1-2.43-5.43,7.051,7.051,0,0,1,3.64-6.27q3.645-2.3,10.1-2.36h7.73v8.56a12.323,12.323,0,0,1-4.96,5.58,14.568,14.568,0,0,1-7.74,2.08A9.216,9.216,0,0,1,2200.98,1558.83Zm64.48-33.66h-24.07v38.92h4.33v-35.18h19.74v-3.74Zm40.36,32.77-2.71-2.06a13.551,13.551,0,0,1-4.81,4.03,14.118,14.118,0,0,1-6.12,1.26,12.145,12.145,0,0,1-9.58-4.4,16.278,16.278,0,0,1-3.81-11.03v-0.83h27.86v-2.41q0-8.37-4.17-13.22a14.13,14.13,0,0,0-11.27-4.83,14.993,14.993,0,0,0-8.45,2.57,17.309,17.309,0,0,0-6.08,7.07,22.861,22.861,0,0,0-2.18,10.1v1.55a21.077,21.077,0,0,0,2.24,9.8,16.592,16.592,0,0,0,6.26,6.82,16.982,16.982,0,0,0,9,2.45q9.06,0,13.82-6.87h0Zm-6.68-26.3a14.331,14.331,0,0,1,3.22,9.14v0.46h-23.42a16.365,16.365,0,0,1,4.06-9.56,10.779,10.779,0,0,1,8.21-3.56A9.946,9.946,0,0,1,2299.14,1531.64Zm51.22-6.47h-4.33v17.44H2325v-17.44h-4.33v38.92H2325v-17.85h21.03v17.85h4.33v-38.92Zm44.91,0h-32.23v3.66h13.68v35.26h4.33v-35.26h14.22v-3.66Zm15.08,31.83q-3.24-4.17-3.23-11.62v-1.26q0-7.59,3.23-11.8a11.814,11.814,0,0,1,16.67-1.4,10.558,10.558,0,0,1,3.3,7.38h4.15a13.875,13.875,0,0,0-4.46-10.04,15.1,15.1,0,0,0-10.59-3.81,15.975,15.975,0,0,0-8.82,2.41,15.525,15.525,0,0,0-5.79,6.83,24.213,24.213,0,0,0-2.02,10.18v1.3q0,8.985,4.49,14.31t12.18,5.33a16.519,16.519,0,0,0,7.3-1.66,13.9,13.9,0,0,0,5.47-4.59,12.134,12.134,0,0,0,2.24-6.49h-4.15a8.931,8.931,0,0,1-3.3,6.57,11.452,11.452,0,0,1-7.56,2.53A10.852,10.852,0,0,1,2410.35,1557Zm66.1-31.83h-32.22v3.66h13.67v35.26h4.33v-35.26h14.22v-3.66Zm29.53,38.92q6.96,0,10.77-2.83a9.337,9.337,0,0,0,3.81-7.97,8.54,8.54,0,0,0-2.33-5.93,10.735,10.735,0,0,0-6.15-3.27,10.072,10.072,0,0,0,5.16-3.33,8.265,8.265,0,0,0,1.77-5.2,8.737,8.737,0,0,0-3.97-7.75q-3.975-2.64-11.4-2.64h-14.33v38.92h16.67Zm0.15-17.92c3.24,0,5.75.64,7.5,1.91a6.013,6.013,0,0,1,2.64,5.14,6.217,6.217,0,0,1-2.64,5.4c-1.75,1.25-4.26,1.87-7.5,1.87h-12.52v-14.32h12.52Zm-12.52-17.34h10.03q5.475,0,8.28,1.64a5.589,5.589,0,0,1,2.79,5.2q0,6.765-10.17,6.91h-10.93v-13.75Zm39.49,16.08q0,9,4.85,14.45a16.115,16.115,0,0,0,12.61,5.45,16.943,16.943,0,0,0,9.06-2.45,16.323,16.323,0,0,0,6.15-6.96,22.987,22.987,0,0,0,2.18-10.16v-0.9q0-9-4.83-14.44a16.067,16.067,0,0,0-12.63-5.45,16.411,16.411,0,0,0-15.21,9.49,22.8,22.8,0,0,0-2.18,10.11v0.86Zm4.33-.46q0-7.305,3.64-11.82a11.549,11.549,0,0,1,9.42-4.51,11.856,11.856,0,0,1,6.85,2.03,13.294,13.294,0,0,1,4.66,5.74,19.677,19.677,0,0,1,1.66,8.16v0.83q0,7.335-3.63,11.81a12.291,12.291,0,0,1-18.98,0,17.637,17.637,0,0,1-3.62-11.45v-0.79Zm-760.17,69.12h-29.7v38.92h4.33v-35.18h21.04v35.18h4.33v-38.92Zm14.48,19.75q0,8.985,4.86,14.44a16.086,16.086,0,0,0,12.61,5.45,16.883,16.883,0,0,0,9.05-2.45,16.28,16.28,0,0,0,6.16-6.96,23.125,23.125,0,0,0,2.18-10.16v-0.9q0-9-4.84-14.44a16.052,16.052,0,0,0-12.63-5.45,16.411,16.411,0,0,0-15.2,9.49,22.8,22.8,0,0,0-2.19,10.11v0.87Zm4.33-.47q0-7.3,3.65-11.82a11.543,11.543,0,0,1,9.41-4.51,11.888,11.888,0,0,1,6.86,2.03,13.2,13.2,0,0,1,4.65,5.74,19.677,19.677,0,0,1,1.66,8.16v0.83q0,7.335-3.62,11.82a12.309,12.309,0,0,1-18.98,0,17.634,17.634,0,0,1-3.63-11.46v-0.79Zm49.74-19.28-0.79,18.85q-0.51,9.06-2.13,12.59a5.634,5.634,0,0,1-5.34,3.59l-1.34.07v3.82h1.66a9.293,9.293,0,0,0,6.25-2.01,12.5,12.5,0,0,0,3.53-6.28,60.222,60.222,0,0,0,1.63-12.34l0.68-14.55h15.99v35.18h4.33v-38.92h-24.47Zm71.35,0h-4.33v17.44H1891.8v-17.44h-4.33v38.92h4.33v-17.84h21.03v17.84h4.33v-38.92Zm14.49,19.75q0,8.985,4.85,14.44a16.115,16.115,0,0,0,12.61,5.45,16.918,16.918,0,0,0,9.06-2.45,16.194,16.194,0,0,0,6.15-6.96,22.99,22.99,0,0,0,2.19-10.16v-0.9q0-9-4.84-14.44a16.052,16.052,0,0,0-12.63-5.45,16.411,16.411,0,0,0-15.21,9.49,22.936,22.936,0,0,0-2.18,10.11v0.87Zm4.33-.47q0-7.3,3.64-11.82a11.549,11.549,0,0,1,9.42-4.51,11.888,11.888,0,0,1,6.86,2.03,13.274,13.274,0,0,1,4.65,5.74,19.677,19.677,0,0,1,1.66,8.16v0.83q0,7.335-3.62,11.82a12.309,12.309,0,0,1-18.98,0,17.634,17.634,0,0,1-3.63-11.46v-0.79Zm69.08-19.28h-24.07v38.92h4.33v-35.18h19.74v-3.74Zm9.04,19.75q0,8.985,4.85,14.44a16.1,16.1,0,0,0,12.61,5.45,16.943,16.943,0,0,0,9.06-2.45,16.323,16.323,0,0,0,6.15-6.96,22.987,22.987,0,0,0,2.18-10.16v-0.9q0-9-4.83-14.44a16.081,16.081,0,0,0-12.63-5.45,16.411,16.411,0,0,0-15.21,9.49,22.8,22.8,0,0,0-2.18,10.11v0.87Zm4.33-.47q0-7.3,3.64-11.82a11.549,11.549,0,0,1,9.42-4.51,11.856,11.856,0,0,1,6.85,2.03,13.294,13.294,0,0,1,4.66,5.74,19.677,19.677,0,0,1,1.66,8.16v0.83q0,7.335-3.63,11.82a12.309,12.309,0,0,1-18.98,0,17.685,17.685,0,0,1-3.62-11.46v-0.79Zm68.33,19.64h29.38v11.54h3.97l0.32-15.18h-3.97v-35.28h-4.33v35.28h-21.04v-35.28h-4.33v38.92Zm51.69-6.91v-32.01h-4.29v38.92h4.29l21.07-31.98v31.98h4.33v-38.92h-4.33Zm68.65,6.91h5.7l-17.79-20.04,16.02-18.88h-5.45l-14.32,17.26h-5.92v-17.26h-4.37v38.92h4.37v-17.84h5.99Zm22.78-38.92-0.79,18.85q-0.51,9.06-2.13,12.59a5.634,5.634,0,0,1-5.34,3.59l-1.33.07v3.82h1.66a9.283,9.283,0,0,0,6.24-2.01,12.5,12.5,0,0,0,3.53-6.28,60.222,60.222,0,0,0,1.63-12.34l0.68-14.55h15.99v35.18h4.33v-38.92h-24.47Zm70.63,38.92v-0.43q-1.185-2.8-1.19-8.46v-18.41q-0.105-5.835-3.87-9.09t-10.31-3.25a16.679,16.679,0,0,0-10.64,3.4q-4.335,3.39-4.33,8.04l4.33,0.03a6.848,6.848,0,0,1,2.96-5.54,11.818,11.818,0,0,1,7.47-2.3q4.935,0,7.52,2.39a8.534,8.534,0,0,1,2.58,6.57v4.42h-7.83q-8.475,0-13.22,3.31a10.408,10.408,0,0,0-4.75,8.99,10.2,10.2,0,0,0,3.48,7.92,13.142,13.142,0,0,0,9.11,3.13,17.923,17.923,0,0,0,7.46-1.6,15.207,15.207,0,0,0,5.79-4.55,20.1,20.1,0,0,0,.83,5.43h4.61Zm-24.51-5.25a6.941,6.941,0,0,1-2.44-5.44,7.06,7.06,0,0,1,3.65-6.27q3.63-2.295,10.1-2.36h7.72v8.56a12.266,12.266,0,0,1-4.96,5.58,14.518,14.518,0,0,1-7.74,2.08A9.215,9.215,0,0,1,2276,1647.24Z" transform="translate(-975.563 -1184.44)"/>
  <path id="line" class="cls-3" d="M1745.8,1462.65v-6.14h153.84v6.14H1745.8Z" transform="translate(-975.563 -1184.44)"/>
  <path id="MEGAPOLIS_MEDIA" class="cls-1" d="M1814.65,1185.93c-3.26,0-5.24,1.63-6.05,4.88l-11.42,43.34c-1.05,3.84-1.74,7.32-2.44,11.04h-1.75c-0.82-3.72-1.4-7.2-2.45-10.92l-11.41-43.46c-0.81-3.25-2.68-4.88-5.94-4.88h-15.14c-3.73,0-5.59,1.98-5.71,5.7l-3.02,74.47h14.2l2.57-68.43h1.98l14.09,53.33c0.81,3.14,2.79,4.88,6.17,4.88h11.18c3.26,0,5.24-1.74,6.06-4.88l13.86-53.33h2.21l2.68,68.43h14.32l-3.26-74.47c-0.11-3.72-1.98-5.7-5.7-5.7h-15.03Zm99.94,68.44h-31.45c-4.19,0-5.82-1.74-5.82-6.74v-17.89h32.96v-11.16h-32.96v-14.06c0-4.99,1.63-6.74,5.82-6.74h31.45l0.7-11.15c-10.6-.93-23.64-0.93-35.41-0.93-10.48,0-17.12,5.81-17.23,15.22v50.2c0.11,9.41,6.63,15.22,17.23,15.22,11.77,0,24.81,0,35.41-.93Zm80.72-34.51H1981.1v29.63c-4.89,3.02-10.14,5.58-16.89,5.58-10.83,0-14.44-7.09-14.44-28.59,0-26.14,5.36-29.28,20.61-29.28,5.48,0,13.63.24,21.2,0.7l1.16-10.81a87.329,87.329,0,0,0-23.06-2.67c-25.97,0-35.17,9.18-35.17,41.25,0,28.93,7.34,41.94,25.16,41.94a34.324,34.324,0,0,0,23.52-9.41l1.28,7.9h10.84v-46.24Zm67.2,23.59,6.64,22.65h14.91l-24.11-76.33a5.248,5.248,0,0,0-5.24-3.84H2040.5a5.256,5.256,0,0,0-5.24,3.84l-24.11,76.33h14.91l6.64-22.65h29.81Zm-3.49-11.97h-22.83l8.04-27.65,1.86-6.86h3.15c0.35,2.21,1.16,4.65,1.74,6.86Zm72.1-46.59c-13.75,0-19.92.11-29.12,1.04v80.17h14.56v-30.55a142.616,142.616,0,0,0,16.42.93c18.98,0,25.74-5.47,25.74-25.8C2158.72,1190.46,2151.96,1184.89,2131.12,1184.89Zm-14.56,39.73v-27.65l14.21-.12c10.13,0,13.28,2.79,13.28,13.83s-3.15,13.83-13.28,13.94h-14.21Zm94.11-40.2c-24.46,0-33.08,9.76-33.08,41.6s8.62,41.59,33.08,41.59c24.57,0,33.19-9.76,33.19-41.59S2235.24,1184.42,2210.67,1184.42Zm0,12.43c13.63,0,17.82,6.86,17.82,29.17s-4.19,29.16-17.82,29.16c-13.51,0-17.7-6.85-17.7-29.16S2197.16,1196.85,2210.67,1196.85Zm71.05-10.92h-14.56v63.79c0,9.64,4.66,16.62,18.05,16.62,10.84,0,21.78-.12,31.92-1.05l-0.59-11.27h-27.95c-5.12,0-6.87-1.74-6.87-6.62v-61.47Zm69.3,80.17v-80.17h-14.55v80.17h14.55Zm50.55-81.56c-19.21,0-27.6,3.14-27.6,21.49,0,11.97,4.31,19.41,16.19,23.24l16.19,5.11c5.82,1.86,8.5,3.26,8.5,10.58,0,8.25-2.91,9.76-13.39,9.76-5.59,0-10.25-.12-25.51-0.47l-0.93,10.69a132.85,132.85,0,0,0,26.09,2.56c20.61,0,28.53-4.18,28.53-22.43,0-11.73-3.84-19.28-16.54-23.35l-15.49-4.76c-6.29-1.98-8.97-3.61-8.97-10.69,0-8.6,3.61-9.18,13.4-9.18,7.92,0,17.23.23,23.87,0.46l0.93-10.34C2418.23,1185,2409.26,1184.54,2401.57,1184.54Zm-586.92,130.87c-3.26,0-5.24,1.63-6.05,4.88l-11.42,43.34c-1.05,3.84-1.74,7.32-2.44,11.04h-1.75c-0.82-3.72-1.4-7.2-2.45-10.92l-11.41-43.46c-0.81-3.25-2.68-4.88-5.94-4.88h-15.14c-3.73,0-5.59,1.98-5.71,5.7l-3.02,74.48h14.2l2.57-68.44h1.98l14.09,53.33c0.81,3.14,2.79,4.88,6.17,4.88h11.18c3.26,0,5.24-1.74,6.06-4.88l13.86-53.33h2.21l2.68,68.44h14.32l-3.26-74.48c-0.11-3.72-1.98-5.7-5.7-5.7h-15.03Zm99.94,68.44h-31.45c-4.19,0-5.82-1.74-5.82-6.74v-17.89h32.96v-11.16h-32.96v-14.05c0-5,1.63-6.74,5.82-6.74h31.45l0.7-11.16c-10.6-.93-23.64-0.93-35.41-0.93-10.48,0-17.12,5.81-17.23,15.22v50.2c0.11,9.41,6.63,15.22,17.23,15.22,11.77,0,24.81,0,35.41-.93Zm53.35-69.48c-11.77,0-21.2.46-30.05,1.04v80.18c8.85,0.58,18.4,1.04,30.05,1.04,24.1,0,32.84-9.76,32.84-41.13S1992.04,1314.37,1967.94,1314.37Zm0,70.06c-5.83,0-10.95-.11-15.49-0.23v-57.63c4.66,0,9.55-.12,15.49-0.12,13.27,0,17.47,6.97,17.47,29.05S1981.21,1384.43,1967.94,1384.43Zm71.05,11.16v-80.18h-14.56v80.18h14.56Zm69.3-22.66,6.64,22.66h14.9l-24.11-76.34a5.24,5.24,0,0,0-5.24-3.84h-14.21a5.256,5.256,0,0,0-5.24,3.84l-24.1,76.34h14.9l6.64-22.66h29.82Zm-3.5-11.97h-22.82l8.03-27.65,1.87-6.86h3.14c0.35,2.21,1.16,4.65,1.75,6.86Z" transform="translate(-975.563 -1184.44)"/>
  <path id="detail_2" class="cls-3" d="M1112.19,1445.96l162.57,127.3v109.39l-162.57-127.29v-109.4Zm462.3-107.41-299.73,234.71v109.39l299.73-234.7v-109.4Z" transform="translate(-975.563 -1184.44)"/>
  <path id="detail_3" class="cls-1" d="M976,1296l100,78-1,279-99.437-.59Zm596.49-110.09L1275,1421v109l297.49-234.69v-109.4ZM976,1185l299.05,235.72L1275,1530,976,1296V1185Z" transform="translate(-975.563 -1184.44)"/>
</svg>
