<svg xmlns="http://www.w3.org/2000/svg" width="26.406" height="25" viewBox="0 0 26.406 25">
  <metadata><?xpacket begin="﻿" id="W5M0MpCehiHzreSzNTczkc9d"?>
<x:xmpmeta xmlns:x="adobe:ns:meta/" x:xmptk="Adobe XMP Core 5.6-c142 79.160924, 2017/07/13-01:06:39        ">
   <rdf:RDF xmlns:rdf="http://www.w3.org/1999/02/22-rdf-syntax-ns#">
      <rdf:Description rdf:about=""/>
   </rdf:RDF>
</x:xmpmeta>
                                                                                                    
                                                                                                    
                                                                                                    
                                                                                                    
                                                                                                    
                                                                                                    
                                                                                                    
                                                                                                    
                                                                                                    
                                                                                                    
                                                                                                    
                                                                                                    
                                                                                                    
                                                                                                    
                                                                                                    
                                                                                                    
                                                                                                    
                                                                                                    
                                                                                                    
                                                                                                    
                           
<?xpacket end="w"?></metadata>
<defs>
    <style>
      .cls-1 {
        fill: #e8e8e8;
        fill-rule: evenodd;
      }
    </style>
  </defs>
  <path id="Forma_1_копия_4" data-name="Forma 1 копия 4" class="cls-1" d="M611,345.688a0.824,0.824,0,0,0-.889-0.725l-7.967-1.149-3.571-7.167a0.791,0.791,0,0,0-1.556,0l-3.571,7.167-7.968,1.149a0.825,0.825,0,0,0-.889.725,1.2,1.2,0,0,0,.4.756l5.778,5.576L589.4,359.9a2.41,2.41,0,0,0-.032.315,0.927,0.927,0,0,0,.167.56,0.578,0.578,0,0,0,.5.228,1.352,1.352,0,0,0,.634-0.189l7.127-3.717,7.127,3.717a1.291,1.291,0,0,0,.634.189,0.562,0.562,0,0,0,.485-0.228,0.926,0.926,0,0,0,.166-0.56,2.3,2.3,0,0,0-.016-0.315l-1.365-7.875,5.762-5.576A1.135,1.135,0,0,0,611,345.688Z" transform="translate(-584.594 -336)"/>
</svg>
